# xmcd
# 
# Track frame offsets:
#     150
#     27882
#     54033
#     89530
#     137286
#     166162
# 
# Disc length: 2528
# 
# Revision: 2
# Processed by: cddbd v1.5.2PL0 Copyright (c) Steve Scherf et al.
# Submitted via: fre:ac v1.0.31
# 
DISCID=3a09de06
DTITLE=Chet Baker, Enrico Pieranunzi - Soft Journey
DYEAR=1980
DGENRE=Jazz
TTITLE0=Soft Journey
TTITLE1=Animali Diurni
TTITLE2=Brown Cat Dance
TTITLE3=My Funny Valentine
TTITLE4=Night Bird
TTITLE5=Fairy Flowers
EXTD=YEAR: 1980
EXTT0=
EXTT1=
EXTT2=
EXTT3=
EXTT4=
EXTT5=
PLAYORDER=
